<mxfile host="Electron" agent="Mozilla/5.0 (Windows NT 10.0; Win64; x64) AppleWebKit/537.36 (KHTML, like Gecko) draw.io/24.7.5 Chrome/126.0.6478.183 Electron/31.3.0 Safari/537.36" version="24.7.5">
  <diagram name="Page-1" id="ATZiLn-rYPkULm_2cRTc">
    <mxGraphModel dx="2924" dy="1204" grid="1" gridSize="10" guides="1" tooltips="1" connect="1" arrows="1" fold="1" page="1" pageScale="1" pageWidth="850" pageHeight="1100" math="0" shadow="0">
      <root>
        <mxCell id="0" />
        <mxCell id="1" parent="0" />
        <mxCell id="iO3_lJNBljVYR4Q_CsRo-1" value="" style="rounded=0;whiteSpace=wrap;html=1;imageWidth=24;imageHeight=24;resizeWidth=1;resizable=0;" parent="1" vertex="1">
          <mxGeometry x="40" y="370" width="340" height="210" as="geometry" />
        </mxCell>
        <mxCell id="iO3_lJNBljVYR4Q_CsRo-3" value="List" style="swimlane;fontStyle=0;childLayout=stackLayout;horizontal=1;startSize=30;horizontalStack=0;resizeParent=1;resizeParentMax=0;resizeLast=0;collapsible=1;marginBottom=0;whiteSpace=wrap;html=1;" parent="1" vertex="1">
          <mxGeometry x="50" y="430" width="200" height="120" as="geometry">
            <mxRectangle x="40" y="30" width="60" height="30" as="alternateBounds" />
          </mxGeometry>
        </mxCell>
        <mxCell id="iO3_lJNBljVYR4Q_CsRo-4" value="pump 1" style="text;strokeColor=none;fillColor=none;align=left;verticalAlign=middle;spacingLeft=4;spacingRight=4;overflow=hidden;points=[[0,0.5],[1,0.5]];portConstraint=eastwest;rotatable=0;whiteSpace=wrap;html=1;" parent="iO3_lJNBljVYR4Q_CsRo-3" vertex="1">
          <mxGeometry y="30" width="200" height="30" as="geometry" />
        </mxCell>
        <mxCell id="iO3_lJNBljVYR4Q_CsRo-5" value="pump 2" style="text;strokeColor=none;fillColor=none;align=left;verticalAlign=middle;spacingLeft=4;spacingRight=4;overflow=hidden;points=[[0,0.5],[1,0.5]];portConstraint=eastwest;rotatable=0;whiteSpace=wrap;html=1;" parent="iO3_lJNBljVYR4Q_CsRo-3" vertex="1">
          <mxGeometry y="60" width="200" height="30" as="geometry" />
        </mxCell>
        <mxCell id="iO3_lJNBljVYR4Q_CsRo-6" value="pump 3" style="text;strokeColor=none;fillColor=none;align=left;verticalAlign=middle;spacingLeft=4;spacingRight=4;overflow=hidden;points=[[0,0.5],[1,0.5]];portConstraint=eastwest;rotatable=0;whiteSpace=wrap;html=1;" parent="iO3_lJNBljVYR4Q_CsRo-3" vertex="1">
          <mxGeometry y="90" width="200" height="30" as="geometry" />
        </mxCell>
        <mxCell id="iO3_lJNBljVYR4Q_CsRo-14" value="Add pump" style="html=1;whiteSpace=wrap;" parent="1" vertex="1">
          <mxGeometry x="260" y="430" width="80" height="30" as="geometry" />
        </mxCell>
        <mxCell id="iO3_lJNBljVYR4Q_CsRo-15" value="Delete pump" style="html=1;whiteSpace=wrap;" parent="1" vertex="1">
          <mxGeometry x="260" y="470" width="80" height="30" as="geometry" />
        </mxCell>
        <mxCell id="wuN2fevHBPqDX5S51gUQ-4" value="Edit pump" style="html=1;whiteSpace=wrap;" vertex="1" parent="1">
          <mxGeometry x="260" y="510" width="80" height="30" as="geometry" />
        </mxCell>
        <mxCell id="wuN2fevHBPqDX5S51gUQ-6" value="" style="rounded=0;whiteSpace=wrap;html=1;" vertex="1" parent="1">
          <mxGeometry x="30" y="660" width="340" height="190" as="geometry" />
        </mxCell>
        <mxCell id="wuN2fevHBPqDX5S51gUQ-8" value="" style="edgeStyle=segmentEdgeStyle;endArrow=classic;html=1;curved=0;rounded=0;endSize=8;startSize=8;entryX=0.319;entryY=0;entryDx=0;entryDy=0;entryPerimeter=0;" edge="1" parent="1" target="wuN2fevHBPqDX5S51gUQ-17">
          <mxGeometry width="50" height="50" relative="1" as="geometry">
            <mxPoint x="380" y="440" as="sourcePoint" />
            <mxPoint x="160" y="630" as="targetPoint" />
            <Array as="points">
              <mxPoint x="440" y="440" />
              <mxPoint x="440" y="630" />
              <mxPoint x="161" y="630" />
            </Array>
          </mxGeometry>
        </mxCell>
        <mxCell id="wuN2fevHBPqDX5S51gUQ-10" value="" style="endArrow=none;html=1;rounded=0;" edge="1" parent="1">
          <mxGeometry width="50" height="50" relative="1" as="geometry">
            <mxPoint x="375" y="524.5" as="sourcePoint" />
            <mxPoint x="435" y="525" as="targetPoint" />
            <Array as="points">
              <mxPoint x="435" y="524.5" />
            </Array>
          </mxGeometry>
        </mxCell>
        <mxCell id="wuN2fevHBPqDX5S51gUQ-11" value="" style="rounded=0;whiteSpace=wrap;html=1;" vertex="1" parent="1">
          <mxGeometry x="30" y="130" width="340" height="160" as="geometry" />
        </mxCell>
        <UserObject label="water pumps" link="data:page/id,ATZiLn-rYPkULm_2cRTc" id="wuN2fevHBPqDX5S51gUQ-13">
          <mxCell style="text;html=1;strokeColor=none;fillColor=none;whiteSpace=wrap;align=center;verticalAlign=middle;fontColor=#0000EE;fontStyle=4;" vertex="1" parent="1">
            <mxGeometry x="60" y="160" width="60" height="40" as="geometry" />
          </mxCell>
        </UserObject>
        <UserObject label="moisture sensors" link="data:page/id,ATZiLn-rYPkULm_2cRTc" id="wuN2fevHBPqDX5S51gUQ-14">
          <mxCell style="text;html=1;strokeColor=none;fillColor=none;whiteSpace=wrap;align=center;verticalAlign=middle;fontColor=#0000EE;fontStyle=4;" vertex="1" parent="1">
            <mxGeometry x="60" y="200" width="60" height="40" as="geometry" />
          </mxCell>
        </UserObject>
        <UserObject label="create zone" link="data:page/id,ATZiLn-rYPkULm_2cRTc" id="wuN2fevHBPqDX5S51gUQ-15">
          <mxCell style="text;html=1;strokeColor=none;fillColor=none;whiteSpace=wrap;align=center;verticalAlign=middle;fontColor=#0000EE;fontStyle=4;" vertex="1" parent="1">
            <mxGeometry x="140" y="160" width="90" height="40" as="geometry" />
          </mxCell>
        </UserObject>
        <mxCell id="wuN2fevHBPqDX5S51gUQ-16" value="water pumps" style="text;strokeColor=none;fillColor=none;html=1;fontSize=24;fontStyle=1;verticalAlign=middle;align=center;" vertex="1" parent="1">
          <mxGeometry x="140" y="380" width="100" height="40" as="geometry" />
        </mxCell>
        <mxCell id="wuN2fevHBPqDX5S51gUQ-17" value="new/edit water pumps" style="text;strokeColor=none;fillColor=none;html=1;fontSize=24;fontStyle=1;verticalAlign=middle;align=center;" vertex="1" parent="1">
          <mxGeometry x="110" y="670" width="160" height="40" as="geometry" />
        </mxCell>
        <mxCell id="wuN2fevHBPqDX5S51gUQ-18" value="" style="endArrow=classic;html=1;rounded=0;exitX=0.5;exitY=0;exitDx=0;exitDy=0;" edge="1" parent="1" target="wuN2fevHBPqDX5S51gUQ-16">
          <mxGeometry width="50" height="50" relative="1" as="geometry">
            <mxPoint x="80" y="160" as="sourcePoint" />
            <mxPoint x="130" y="330" as="targetPoint" />
            <Array as="points">
              <mxPoint x="80" y="80" />
              <mxPoint y="80" />
              <mxPoint y="200" />
              <mxPoint y="280" />
              <mxPoint y="350" />
              <mxPoint x="160" y="350" />
              <mxPoint x="160" y="380" />
            </Array>
          </mxGeometry>
        </mxCell>
        <mxCell id="wuN2fevHBPqDX5S51gUQ-19" value="greenHouse" style="text;strokeColor=none;fillColor=none;html=1;fontSize=24;fontStyle=1;verticalAlign=middle;align=center;" vertex="1" parent="1">
          <mxGeometry x="140" y="130" width="100" height="40" as="geometry" />
        </mxCell>
        <mxCell id="wuN2fevHBPqDX5S51gUQ-29" value="" style="rounded=0;whiteSpace=wrap;html=1;" vertex="1" parent="1">
          <mxGeometry x="470" y="360" width="340" height="210" as="geometry" />
        </mxCell>
        <mxCell id="wuN2fevHBPqDX5S51gUQ-30" value="List" style="swimlane;fontStyle=0;childLayout=stackLayout;horizontal=1;startSize=30;horizontalStack=0;resizeParent=1;resizeParentMax=0;resizeLast=0;collapsible=1;marginBottom=0;whiteSpace=wrap;html=1;" vertex="1" parent="1">
          <mxGeometry x="480" y="420" width="200" height="120" as="geometry">
            <mxRectangle x="40" y="30" width="60" height="30" as="alternateBounds" />
          </mxGeometry>
        </mxCell>
        <mxCell id="wuN2fevHBPqDX5S51gUQ-31" value="sensor 1" style="text;strokeColor=none;fillColor=none;align=left;verticalAlign=middle;spacingLeft=4;spacingRight=4;overflow=hidden;points=[[0,0.5],[1,0.5]];portConstraint=eastwest;rotatable=0;whiteSpace=wrap;html=1;" vertex="1" parent="wuN2fevHBPqDX5S51gUQ-30">
          <mxGeometry y="30" width="200" height="30" as="geometry" />
        </mxCell>
        <mxCell id="wuN2fevHBPqDX5S51gUQ-32" value="sensor 2" style="text;strokeColor=none;fillColor=none;align=left;verticalAlign=middle;spacingLeft=4;spacingRight=4;overflow=hidden;points=[[0,0.5],[1,0.5]];portConstraint=eastwest;rotatable=0;whiteSpace=wrap;html=1;" vertex="1" parent="wuN2fevHBPqDX5S51gUQ-30">
          <mxGeometry y="60" width="200" height="30" as="geometry" />
        </mxCell>
        <mxCell id="wuN2fevHBPqDX5S51gUQ-33" value="sensor 3" style="text;strokeColor=none;fillColor=none;align=left;verticalAlign=middle;spacingLeft=4;spacingRight=4;overflow=hidden;points=[[0,0.5],[1,0.5]];portConstraint=eastwest;rotatable=0;whiteSpace=wrap;html=1;" vertex="1" parent="wuN2fevHBPqDX5S51gUQ-30">
          <mxGeometry y="90" width="200" height="30" as="geometry" />
        </mxCell>
        <mxCell id="wuN2fevHBPqDX5S51gUQ-34" value="Add sensor" style="html=1;whiteSpace=wrap;" vertex="1" parent="1">
          <mxGeometry x="690" y="420" width="80" height="30" as="geometry" />
        </mxCell>
        <mxCell id="wuN2fevHBPqDX5S51gUQ-35" value="Delete sensor" style="html=1;whiteSpace=wrap;" vertex="1" parent="1">
          <mxGeometry x="690" y="460" width="80" height="30" as="geometry" />
        </mxCell>
        <mxCell id="wuN2fevHBPqDX5S51gUQ-36" value="Edit sensor" style="html=1;whiteSpace=wrap;" vertex="1" parent="1">
          <mxGeometry x="690" y="500" width="80" height="30" as="geometry" />
        </mxCell>
        <mxCell id="wuN2fevHBPqDX5S51gUQ-37" value="moisture sensors" style="text;strokeColor=none;fillColor=none;html=1;fontSize=24;fontStyle=1;verticalAlign=middle;align=center;" vertex="1" parent="1">
          <mxGeometry x="570" y="370" width="100" height="40" as="geometry" />
        </mxCell>
        <mxCell id="wuN2fevHBPqDX5S51gUQ-38" value="" style="rounded=0;whiteSpace=wrap;html=1;" vertex="1" parent="1">
          <mxGeometry x="470" y="660" width="340" height="190" as="geometry" />
        </mxCell>
        <mxCell id="wuN2fevHBPqDX5S51gUQ-39" value="new/edit water pumps" style="text;strokeColor=none;fillColor=none;html=1;fontSize=24;fontStyle=1;verticalAlign=middle;align=center;" vertex="1" parent="1">
          <mxGeometry x="550" y="670" width="160" height="40" as="geometry" />
        </mxCell>
        <mxCell id="wuN2fevHBPqDX5S51gUQ-40" value="" style="endArrow=none;html=1;rounded=0;" edge="1" parent="1">
          <mxGeometry width="50" height="50" relative="1" as="geometry">
            <mxPoint x="790" y="514.5" as="sourcePoint" />
            <mxPoint x="850" y="515" as="targetPoint" />
            <Array as="points">
              <mxPoint x="850" y="514.5" />
            </Array>
          </mxGeometry>
        </mxCell>
        <mxCell id="wuN2fevHBPqDX5S51gUQ-41" value="" style="edgeStyle=segmentEdgeStyle;endArrow=classic;html=1;curved=0;rounded=0;endSize=8;startSize=8;entryX=0.319;entryY=0;entryDx=0;entryDy=0;entryPerimeter=0;" edge="1" parent="1">
          <mxGeometry width="50" height="50" relative="1" as="geometry">
            <mxPoint x="830" y="430" as="sourcePoint" />
            <mxPoint x="610" y="660" as="targetPoint" />
            <Array as="points">
              <mxPoint x="889" y="430" />
              <mxPoint x="889" y="620" />
              <mxPoint x="610" y="620" />
            </Array>
          </mxGeometry>
        </mxCell>
        <mxCell id="wuN2fevHBPqDX5S51gUQ-42" value="" style="endArrow=classic;html=1;rounded=0;" edge="1" parent="1">
          <mxGeometry width="50" height="50" relative="1" as="geometry">
            <mxPoint x="1260" y="440" as="sourcePoint" />
            <mxPoint x="1090" y="650" as="targetPoint" />
            <Array as="points">
              <mxPoint x="1300" y="440" />
              <mxPoint x="1300" y="620" />
              <mxPoint x="1090" y="620" />
            </Array>
          </mxGeometry>
        </mxCell>
        <mxCell id="wuN2fevHBPqDX5S51gUQ-43" value="" style="endArrow=classic;html=1;rounded=0;entryX=0.08;entryY=-0.05;entryDx=0;entryDy=0;entryPerimeter=0;" edge="1" parent="1" target="wuN2fevHBPqDX5S51gUQ-37">
          <mxGeometry width="50" height="50" relative="1" as="geometry">
            <mxPoint x="90" y="250" as="sourcePoint" />
            <mxPoint x="90" y="320" as="targetPoint" />
            <Array as="points">
              <mxPoint x="90" y="320" />
              <mxPoint x="578" y="320" />
            </Array>
          </mxGeometry>
        </mxCell>
        <mxCell id="wuN2fevHBPqDX5S51gUQ-45" value="" style="endArrow=classic;html=1;rounded=0;" edge="1" parent="1">
          <mxGeometry width="50" height="50" relative="1" as="geometry">
            <mxPoint x="260" y="180" as="sourcePoint" />
            <mxPoint x="1040" y="360" as="targetPoint" />
            <Array as="points">
              <mxPoint x="1040" y="180" />
            </Array>
          </mxGeometry>
        </mxCell>
        <mxCell id="wuN2fevHBPqDX5S51gUQ-46" value="" style="rounded=0;whiteSpace=wrap;html=1;" vertex="1" parent="1">
          <mxGeometry x="910" y="370" width="340" height="210" as="geometry" />
        </mxCell>
        <mxCell id="wuN2fevHBPqDX5S51gUQ-47" value="List" style="swimlane;fontStyle=0;childLayout=stackLayout;horizontal=1;startSize=30;horizontalStack=0;resizeParent=1;resizeParentMax=0;resizeLast=0;collapsible=1;marginBottom=0;whiteSpace=wrap;html=1;" vertex="1" parent="1">
          <mxGeometry x="920" y="430" width="200" height="120" as="geometry">
            <mxRectangle x="40" y="30" width="60" height="30" as="alternateBounds" />
          </mxGeometry>
        </mxCell>
        <mxCell id="wuN2fevHBPqDX5S51gUQ-48" value="zone 1" style="text;strokeColor=none;fillColor=none;align=left;verticalAlign=middle;spacingLeft=4;spacingRight=4;overflow=hidden;points=[[0,0.5],[1,0.5]];portConstraint=eastwest;rotatable=0;whiteSpace=wrap;html=1;" vertex="1" parent="wuN2fevHBPqDX5S51gUQ-47">
          <mxGeometry y="30" width="200" height="30" as="geometry" />
        </mxCell>
        <mxCell id="wuN2fevHBPqDX5S51gUQ-49" value="zone&amp;nbsp;2" style="text;strokeColor=none;fillColor=none;align=left;verticalAlign=middle;spacingLeft=4;spacingRight=4;overflow=hidden;points=[[0,0.5],[1,0.5]];portConstraint=eastwest;rotatable=0;whiteSpace=wrap;html=1;" vertex="1" parent="wuN2fevHBPqDX5S51gUQ-47">
          <mxGeometry y="60" width="200" height="30" as="geometry" />
        </mxCell>
        <mxCell id="wuN2fevHBPqDX5S51gUQ-50" value="zone&amp;nbsp;3" style="text;strokeColor=none;fillColor=none;align=left;verticalAlign=middle;spacingLeft=4;spacingRight=4;overflow=hidden;points=[[0,0.5],[1,0.5]];portConstraint=eastwest;rotatable=0;whiteSpace=wrap;html=1;" vertex="1" parent="wuN2fevHBPqDX5S51gUQ-47">
          <mxGeometry y="90" width="200" height="30" as="geometry" />
        </mxCell>
        <mxCell id="wuN2fevHBPqDX5S51gUQ-51" value="Add&amp;nbsp;&lt;span style=&quot;text-align: left;&quot;&gt;zone&amp;nbsp;&lt;/span&gt;" style="html=1;whiteSpace=wrap;" vertex="1" parent="1">
          <mxGeometry x="1130" y="430" width="80" height="30" as="geometry" />
        </mxCell>
        <mxCell id="wuN2fevHBPqDX5S51gUQ-52" value="Delete&amp;nbsp;&lt;span style=&quot;text-align: left;&quot;&gt;zone&amp;nbsp;&lt;/span&gt;" style="html=1;whiteSpace=wrap;" vertex="1" parent="1">
          <mxGeometry x="1130" y="470" width="80" height="30" as="geometry" />
        </mxCell>
        <mxCell id="wuN2fevHBPqDX5S51gUQ-53" value="Edit&amp;nbsp;&lt;span style=&quot;text-align: left;&quot;&gt;zone&amp;nbsp;&lt;/span&gt;" style="html=1;whiteSpace=wrap;" vertex="1" parent="1">
          <mxGeometry x="1130" y="510" width="80" height="30" as="geometry" />
        </mxCell>
        <mxCell id="wuN2fevHBPqDX5S51gUQ-54" value="zone" style="text;strokeColor=none;fillColor=none;html=1;fontSize=24;fontStyle=1;verticalAlign=middle;align=center;" vertex="1" parent="1">
          <mxGeometry x="1010" y="380" width="100" height="40" as="geometry" />
        </mxCell>
        <mxCell id="wuN2fevHBPqDX5S51gUQ-55" value="" style="rounded=0;whiteSpace=wrap;html=1;" vertex="1" parent="1">
          <mxGeometry x="900" y="660" width="340" height="190" as="geometry" />
        </mxCell>
        <mxCell id="wuN2fevHBPqDX5S51gUQ-56" value="new/edit zones" style="text;strokeColor=none;fillColor=none;html=1;fontSize=24;fontStyle=1;verticalAlign=middle;align=center;" vertex="1" parent="1">
          <mxGeometry x="980" y="670" width="160" height="40" as="geometry" />
        </mxCell>
        <mxCell id="wuN2fevHBPqDX5S51gUQ-57" value="" style="endArrow=none;html=1;rounded=0;" edge="1" parent="1">
          <mxGeometry width="50" height="50" relative="1" as="geometry">
            <mxPoint x="1230" y="524.5" as="sourcePoint" />
            <mxPoint x="1290" y="525" as="targetPoint" />
            <Array as="points">
              <mxPoint x="1290" y="524.5" />
            </Array>
          </mxGeometry>
        </mxCell>
      </root>
    </mxGraphModel>
  </diagram>
</mxfile>
